<svg width="135" height="35" fill="none" xmlns="http://www.w3.org/2000/svg"><path d="M67.93 20.878c0 1.185-.161 2.234-.483 3.148-.313.914-.774 1.689-1.383 2.324a5.822 5.822 0 01-2.184 1.421c-.847.322-1.803.483-2.87.483-.998 0-1.916-.16-2.754-.483a6.122 6.122 0 01-2.171-1.421c-.61-.635-1.083-1.41-1.422-2.324-.33-.914-.495-1.963-.495-3.148 0-1.574.28-2.907.838-4 .559-1.09 1.354-1.92 2.387-2.487 1.032-.567 2.264-.851 3.694-.851 1.329 0 2.505.284 3.53.85 1.032.568 1.84 1.397 2.424 2.489.593 1.092.889 2.425.889 3.999zm-9.814 0c0 .93.102 1.714.305 2.349.203.634.52 1.113.952 1.434.432.322.995.483 1.689.483.685 0 1.24-.161 1.663-.483.431-.322.744-.8.94-1.434.202-.635.304-1.418.304-2.35 0-.938-.102-1.717-.305-2.335-.195-.626-.508-1.096-.94-1.41-.431-.312-.994-.469-1.688-.469-1.024 0-1.769.351-2.234 1.054-.457.702-.686 1.756-.686 3.16zM79.19 13.54c1.515 0 2.734.415 3.657 1.244.922.821 1.384 2.141 1.384 3.961V28h-3.873v-8.29c0-1.016-.186-1.782-.558-2.298-.364-.516-.94-.774-1.727-.774-1.185 0-1.993.402-2.425 1.206-.431.804-.647 1.963-.647 3.478V28h-3.872V13.807h2.958l.52 1.815h.216c.305-.49.682-.889 1.13-1.193.457-.305.96-.53 1.51-.673a6.893 6.893 0 011.727-.216zM92.09 28h-3.872V8.246h3.872V28zm7.947-14.193V28h-3.872V13.807h3.872zm-1.93-5.56c.576 0 1.071.135 1.486.405.415.263.622.758.622 1.486 0 .72-.207 1.218-.622 1.498-.415.27-.91.406-1.486.406-.584 0-1.083-.135-1.498-.406-.406-.28-.609-.779-.609-1.498 0-.728.203-1.223.61-1.486.414-.27.913-.406 1.497-.406zm14.067 5.293c1.515 0 2.734.415 3.656 1.244.923.821 1.384 2.141 1.384 3.961V28h-3.872v-8.29c0-1.016-.186-1.782-.559-2.298-.364-.516-.939-.774-1.726-.774-1.185 0-1.994.402-2.425 1.206-.432.804-.648 1.963-.648 3.478V28h-3.872V13.807h2.958l.521 1.815h.216c.304-.49.681-.889 1.13-1.193.457-.305.96-.53 1.51-.673a6.896 6.896 0 011.727-.216zm14.879 0c1.312 0 2.441.254 3.389.762a5.21 5.21 0 012.197 2.183c.516.957.774 2.125.774 3.504v1.88h-9.153c.042 1.091.368 1.95.977 2.576.618.618 1.473.927 2.565.927.905 0 1.735-.093 2.488-.28a12.652 12.652 0 002.323-.837v2.996c-.702.347-1.438.6-2.209.762-.761.16-1.688.24-2.78.24-1.422 0-2.683-.262-3.783-.786-1.092-.525-1.951-1.325-2.577-2.4-.618-1.075-.927-2.429-.927-4.062 0-1.659.279-3.038.838-4.139.567-1.108 1.354-1.938 2.361-2.488 1.007-.559 2.18-.838 3.517-.838zm.025 2.755c-.753 0-1.379.241-1.879.724-.491.482-.774 1.24-.85 2.272h5.433c-.008-.576-.114-1.088-.317-1.536a2.386 2.386 0 00-.889-1.066c-.389-.263-.888-.394-1.498-.394z" fill="url(#paint0_linear_1120_231)"/><path d="M40 32.981h-8.701V15.792a37.838 37.838 0 01-22.598 0V33H0V2.093l6.664 3.415a29.2 29.2 0 0026.966-.167L39.982 2v30.981H40z" fill="url(#paint1_linear_1120_231)"/><defs><linearGradient id="paint0_linear_1120_231" x1="53" y1="0" x2="122.509" y2="-29.466" gradientUnits="userSpaceOnUse"><stop stop-color="#01B29C"/><stop offset="1" stop-color="#0073B4"/><stop offset="1" stop-color="#0073B4"/></linearGradient><linearGradient id="paint1_linear_1120_231" x1="0" y1="2" x2="37.932" y2="-6.856" gradientUnits="userSpaceOnUse"><stop stop-color="#01B29C"/><stop offset="1" stop-color="#0073B4"/><stop offset="1" stop-color="#0073B4"/></linearGradient></defs></svg>