<svg width="135" height="35" viewBox="0 0 135 35" fill="none" xmlns="http://www.w3.org/2000/svg">
<path d="M67.9297 20.8779C67.9297 22.0628 67.7689 23.1123 67.4473 24.0264C67.1341 24.9404 66.6729 25.7148 66.0635 26.3496C65.4626 26.9759 64.7347 27.4499 63.8799 27.7715C63.0335 28.0931 62.0771 28.2539 61.0107 28.2539C60.012 28.2539 59.0938 28.0931 58.2559 27.7715C57.4264 27.4499 56.7028 26.9759 56.085 26.3496C55.4756 25.7148 55.0016 24.9404 54.6631 24.0264C54.333 23.1123 54.168 22.0628 54.168 20.8779C54.168 19.3037 54.4473 17.9707 55.0059 16.8789C55.5645 15.7871 56.36 14.9577 57.3926 14.3906C58.4251 13.8236 59.6566 13.54 61.0869 13.54C62.4157 13.54 63.5921 13.8236 64.6162 14.3906C65.6488 14.9577 66.457 15.7871 67.041 16.8789C67.6335 17.9707 67.9297 19.3037 67.9297 20.8779ZM58.1162 20.8779C58.1162 21.8089 58.2178 22.5918 58.4209 23.2266C58.624 23.8613 58.9414 24.3395 59.373 24.6611C59.8047 24.9827 60.3675 25.1436 61.0615 25.1436C61.7471 25.1436 62.3014 24.9827 62.7246 24.6611C63.1562 24.3395 63.4694 23.8613 63.6641 23.2266C63.8672 22.5918 63.9688 21.8089 63.9688 20.8779C63.9688 19.9385 63.8672 19.1598 63.6641 18.542C63.4694 17.9157 63.1562 17.446 62.7246 17.1328C62.293 16.8197 61.7301 16.6631 61.0361 16.6631C60.012 16.6631 59.2673 17.0143 58.8018 17.7168C58.3447 18.4193 58.1162 19.473 58.1162 20.8779ZM79.1904 13.54C80.7054 13.54 81.9242 13.9548 82.8467 14.7842C83.7692 15.6051 84.2305 16.9255 84.2305 18.7451V28H80.3584V19.71C80.3584 18.6943 80.1722 17.9284 79.7998 17.4121C79.4359 16.8958 78.8604 16.6377 78.0732 16.6377C76.8883 16.6377 76.0801 17.0397 75.6484 17.8438C75.2168 18.6478 75.001 19.8073 75.001 21.3223V28H71.1289V13.8066H74.0869L74.6074 15.6221H74.8232C75.1279 15.1312 75.5046 14.7334 75.9531 14.4287C76.4102 14.124 76.9137 13.8997 77.4639 13.7559C78.0225 13.612 78.598 13.54 79.1904 13.54ZM92.0889 28H88.2168V8.24609H92.0889V28ZM100.036 13.8066V28H96.1641V13.8066H100.036ZM98.1064 8.24609C98.682 8.24609 99.1771 8.38151 99.5918 8.65234C100.007 8.91471 100.214 9.40983 100.214 10.1377C100.214 10.8571 100.007 11.3564 99.5918 11.6357C99.1771 11.9066 98.682 12.042 98.1064 12.042C97.5225 12.042 97.0231 11.9066 96.6084 11.6357C96.2021 11.3564 95.999 10.8571 95.999 10.1377C95.999 9.40983 96.2021 8.91471 96.6084 8.65234C97.0231 8.38151 97.5225 8.24609 98.1064 8.24609ZM112.173 13.54C113.688 13.54 114.907 13.9548 115.829 14.7842C116.752 15.6051 117.213 16.9255 117.213 18.7451V28H113.341V19.71C113.341 18.6943 113.155 17.9284 112.782 17.4121C112.418 16.8958 111.843 16.6377 111.056 16.6377C109.871 16.6377 109.062 17.0397 108.631 17.8438C108.199 18.6478 107.983 19.8073 107.983 21.3223V28H104.111V13.8066H107.069L107.59 15.6221H107.806C108.11 15.1312 108.487 14.7334 108.936 14.4287C109.393 14.124 109.896 13.8997 110.446 13.7559C111.005 13.612 111.58 13.54 112.173 13.54ZM127.052 13.54C128.364 13.54 129.493 13.7939 130.441 14.3018C131.389 14.8011 132.121 15.529 132.638 16.4854C133.154 17.4417 133.412 18.6097 133.412 19.9893V21.8682H124.259C124.301 22.96 124.627 23.819 125.236 24.4453C125.854 25.0632 126.709 25.3721 127.801 25.3721C128.706 25.3721 129.536 25.279 130.289 25.0928C131.042 24.9066 131.817 24.6273 132.612 24.2549V27.251C131.91 27.598 131.174 27.8519 130.403 28.0127C129.642 28.1735 128.715 28.2539 127.623 28.2539C126.201 28.2539 124.94 27.9915 123.84 27.4668C122.748 26.9421 121.889 26.1423 121.263 25.0674C120.645 23.9925 120.336 22.6383 120.336 21.0049C120.336 19.346 120.615 17.9665 121.174 16.8662C121.741 15.7575 122.528 14.9281 123.535 14.3779C124.542 13.8193 125.715 13.54 127.052 13.54ZM127.077 16.2949C126.324 16.2949 125.698 16.5361 125.198 17.0186C124.707 17.501 124.424 18.2585 124.348 19.291H129.781C129.773 18.7155 129.667 18.2035 129.464 17.7549C129.269 17.3063 128.973 16.9508 128.575 16.6885C128.186 16.4261 127.687 16.2949 127.077 16.2949Z" fill="url(#paint0_linear_1120_231)"/>
<path d="M40 32.9814H31.2988V15.7922C23.9559 18.094 16.0441 18.094 8.70124 15.7922V33H0V2.09281L6.66361 5.50838C15.1262 9.8521 25.2226 9.79641 33.6301 5.34132L39.9816 2V32.9814H40Z" fill="url(#paint1_linear_1120_231)"/>
<defs>
<linearGradient id="paint0_linear_1120_231" x1="53" y1="0" x2="122.509" y2="-29.4658" gradientUnits="userSpaceOnUse">
<stop stop-color="#01B29C"/>
<stop offset="1" stop-color="#0073B4"/>
<stop offset="1" stop-color="#0073B4"/>
</linearGradient>
<linearGradient id="paint1_linear_1120_231" x1="-5.38378e-09" y1="2" x2="37.9324" y2="-6.85602" gradientUnits="userSpaceOnUse">
<stop stop-color="#01B29C"/>
<stop offset="1" stop-color="#0073B4"/>
<stop offset="1" stop-color="#0073B4"/>
</linearGradient>
</defs>
</svg>
